<?xml version="1.0" encoding="utf-8"?>
<!-- Generator: Adobe Illustrator 18.1.1, SVG Export Plug-In . SVG Version: 6.00 Build 0)  -->
<svg version="1.1" id="Capa_1" xmlns="http://www.w3.org/2000/svg" xmlns:xlink="http://www.w3.org/1999/xlink" x="0px" y="0px"
	 viewBox="0 0 200 200" enable-background="new 0 0 200 200" xml:space="preserve">
<g>
	<path fill="#ffffff" d="M135.6,73c-11.4-14.8-29.4-6.4-37,6.8c-6.4-15-27.8-20.6-36-2.2c-7.4,17,3.2,34,17,44.6
		c0,0.8,0.4,1.6,0.8,2.4c0.8,1.6,1.4,3.4,2.2,5c0.8,1.4,2.8,0.4,2.6-1c-0.2-1-0.6-2-1-3c1.4,0.8,2.8,1.8,4.2,2.4
		c0,0.6,0.2,1.4,0.6,1.8c1.4,1.4,2.4,3,3.6,4.4c1.4,1.6,4-0.4,3-2.2c-0.2-0.4-0.6-1-0.8-1.4c0.2,0,0.4-0.2,0.4-0.4
		c1.4-0.2,3-0.6,4.4-0.8c2.8-0.6,2.2-5.2-0.6-5c-2.6,0.2-5.4,0.6-7.8,1.4c-1.4-0.8-2.6-1.6-3.8-2.4c0.8,0,1.8,0,2.6-0.4
		c1.4-0.6,1.4-2.4,0-3c-1.6-0.6-3.6-0.4-5.4-0.4c-0.8,0-1.6,0-2.2,0C75.2,114,69,107.2,66,98c-2.6-8-2.4-17.6,4-23.6
		C80.8,64.2,94.6,74,96,86.6c0.2,2.4,3.6,3.2,4.4,0.6c2.4-8.6,8.6-16.8,18.2-17.4c10.8-0.4,17.2,8,16.2,18.2
		c-1.4,14.2-12.8,27-23.4,35.8c0-1.2,0-2.4-0.2-3.6c-0.2-1.4-1.8-1.6-2.4-0.4c-1.2,3-1.8,6-2.4,9.2c-0.4,1.6,0.6,2.8,2.2,3
		c2.6,0.2,7,1,9-1c1-1,0.6-2.4-0.4-3c-1.2-1-2.6-0.6-4-0.6C127.6,116.4,149.2,90.8,135.6,73z"/>
</g>
</svg>
